<?xml version="1.0" standalone="no"?> <!DOCTYPE svg PUBLIC "-//W3C//DTD SVG 20010904//EN" "http://www.w3.org/TR/2001/REC-SVG-20010904/DTD/svg10.dtd"> <svg version="1.0" xmlns="http://www.w3.org/2000/svg" width="600.000000pt" height="327.000000pt" viewBox="0 0 600.000000 327.000000" preserveAspectRatio="xMidYMid meet"> <g transform="translate(0.000000,327.000000) scale(0.100000,-0.100000)" fill="#95b384" stroke="none"> <path d="M2820 2565 c-302 -60 -555 -262 -683 -544 -106 -234 -105 -539 1 -774 201 -443 715 -665 1171 -505 345 121 590 427 630 790 46 412 -193 819 -577 978 -72 31 -229 70 -280 70 -21 0 -22 -1 -8 -16 9 -8 20 -23 25 -32 6 -11 33 -22 76 -30 338 -64 620 -350 691 -702 22 -110 15 -291 -16 -400 -45 -159 -158 -338 -258 -407 -154 -107 -358 -56 -422 104 -18 46 -9 146 16 181 36 49 97 72 194 72 73 0 94 4 138 26 30 15 63 42 79 64 22 29 37 40 66 44 44 7 118 44 161 79 25 20 27 26 17 46 -17 31 -125 109 -172 123 -39 11 -41 10 -77 -24 -20 -20 -48 -42 -62 -49 -24 -13 -24 -13 30 -26 80 -19 135 -24 122 -11 -5 5 -22 11 -36 11 -14 1 -26 5 -26 9 0 3 -11 10 -25 15 -39 13 -16 37 28 29 33 -6 147 -73 147 -86 0 -16 -86 -52 -134 -57 -69 -7 -111 1 -160 31 -38 23 -39 23 -13 28 15 3 24 2 21 -3 -2 -4 4 -8 13 -7 10 0 59 -3 110 -6 56 -3 94 -2 98 4 4 6 -15 10 -48 10 -30 0 -79 5 -108 11 -69 15 -74 14 -137 -8 -40 -14 -50 -21 -41 -30 18 -18 -5 -85 -41 -121 -16 -17 -53 -38 -81 -48 -52 -19 -89 -47 -122 -94 -17 -25 -18 -25 -14 37 2 48 9 69 30 96 l27 36 -30 15 c-30 14 -31 14 -55 -22 -13 -19 -30 -59 -36 -88 -11 -47 -10 -56 9 -90 74 -138 77 -147 77 -224 -1 -59 -6 -87 -26 -130 -53 -113 -136 -180 -225 -180 -63 0 -79 15 -27 25 134 25 238 150 238 285 -1 95 -17 130 -106 226 -77 84 -119 146 -119 179 0 13 -6 15 -32 10 -18 -4 -34 -8 -36 -10 -1 -1 7 -27 18 -58 15 -40 44 -80 105 -147 61 -66 88 -103 96 -133 25 -94 -14 -189 -107 -258 -31 -22 -58 -38 -61 -35 -4 3 -4 7 -2 9 96 67 139 133 139 215 0 67 -7 80 -91 170 -37 40 -78 92 -91 114 -17 31 -33 45 -63 55 -52 18 -103 68 -117 117 -10 34 -10 41 4 50 13 8 4 14 -45 30 -56 19 -68 20 -122 9 -33 -7 -93 -13 -134 -13 -41 0 -72 -2 -69 -5 9 -9 152 -23 163 -16 6 3 15 6 20 7 6 1 24 4 42 7 17 3 36 7 40 10 5 3 15 2 23 -3 11 -7 0 -16 -44 -36 -48 -22 -68 -26 -119 -22 -58 3 -157 40 -157 57 0 4 25 23 56 44 68 45 119 57 142 33 15 -15 15 -16 -1 -16 -10 0 -16 -4 -13 -9 4 -5 -9 -8 -29 -7 -19 2 -35 0 -35 -4 0 -4 -10 -12 -22 -18 -21 -10 -22 -11 -3 -11 11 0 54 8 95 17 70 17 73 19 52 31 -13 7 -42 29 -63 48 -38 35 -41 36 -78 24 -40 -11 -141 -81 -174 -119 -19 -20 -18 -21 25 -53 52 -38 110 -65 160 -74 23 -4 43 -16 52 -31 49 -74 113 -103 226 -104 97 0 158 -23 194 -73 31 -42 34 -140 6 -200 -55 -117 -200 -170 -340 -122 -43 14 -71 34 -126 89 -187 187 -271 479 -218 756 66 349 351 639 687 701 54 10 69 17 91 45 l27 34 -28 -1 c-15 0 -57 -7 -93 -14z m33 -32 c-7 -2 -19 -2 -25 0 -7 3 -2 5 12 5 14 0 19 -2 13 -5z m324 1 c-3 -3 -12 -4 -19 -1 -8 3 -5 6 6 6 11 1 17 -2 13 -5z m-403 -12 c3 -5 0 -9 -7 -9 -7 0 -23 -3 -37 -6 -20 -6 -19 -4 5 8 37 17 33 17 39 7z m485 -8 c10 -9 -35 -3 -49 6 -11 8 -7 9 15 4 17 -4 32 -8 34 -10z m36 -14 c3 -6 -1 -7 -9 -4 -18 7 -21 14 -7 14 6 0 13 -4 16 -10z m-626 -21 c-15 -9 -32 -2 -24 11 3 5 13 6 21 3 12 -4 13 -8 3 -14z m671 7 c-7 -7 -13 -7 -20 0 -6 6 -3 10 10 10 13 0 16 -4 10 -10z m60 -30 c0 -5 -8 -2 -18 7 -10 10 -22 14 -27 10 -4 -5 -5 -2 -1 4 5 10 11 10 26 0 11 -6 20 -16 20 -21z m-776 2 c-4 -5 -9 -7 -12 -4 -3 3 -14 -1 -24 -11 -10 -9 -18 -11 -18 -5 0 13 25 29 45 29 8 0 12 -4 9 -9z m810 -6 c3 -5 -1 -9 -9 -9 -8 0 -12 4 -9 9 3 4 7 8 9 8 2 0 6 -4 9 -8z m-874 -16 c0 -2 -7 -7 -16 -10 -8 -3 -12 -2 -9 4 6 10 25 14 25 6z m915 -14 c-3 -3 -11 0 -18 7 -9 10 -8 11 6 5 10 -3 15 -9 12 -12z m-970 -11 c3 -5 2 -12 -3 -15 -5 -3 -9 1 -9 9 0 17 3 19 12 6z m1009 -13 c-3 -4 0 -8 5 -8 6 0 20 -9 31 -20 28 -28 16 -25 -31 9 -29 22 -35 29 -20 28 11 0 17 -5 15 -9z m-1035 -21 c-2 -2 -17 -11 -34 -21 l-30 -17 24 20 c13 12 28 21 34 21 6 0 8 -1 6 -3z m1163 -82 c10 -4 16 -11 12 -16 -7 -12 -54 36 -53 54 0 7 5 2 11 -10 6 -13 19 -25 30 -28z m-1249 17 c-10 -10 -20 -17 -22 -16 -6 5 20 34 30 34 5 0 1 -8 -8 -18z m-58 -51 c3 -5 2 -12 -3 -15 -5 -3 -9 1 -9 9 0 17 3 19 12 6z m1335 -1 c0 -5 -5 -10 -11 -10 -5 0 -7 5 -4 10 3 6 8 10 11 10 2 0 4 -4 4 -10z m23 -27 c-4 -10 -2 -14 4 -10 5 3 10 0 10 -8 0 -13 -3 -12 -18 1 -18 16 -17 34 1 34 5 0 6 -7 3 -17z m42 -53 c2 -12 1 -20 -2 -16 -4 4 -8 16 -10 28 -4 28 6 18 12 -12z m-1470 -9 c3 -5 2 -12 -3 -15 -5 -3 -9 1 -9 9 0 17 3 19 12 6z m1501 -37 c1 -9 0 -13 -4 -10 -3 4 -7 14 -8 22 -1 9 0 13 4 10 3 -4 7 -14 8 -22z m-1536 -4 c-6 -11 -13 -20 -16 -20 -2 0 0 9 6 20 6 11 13 20 16 20 2 0 0 -9 -6 -20z m1565 -38 c-3 -3 -11 0 -18 7 -9 10 -8 11 6 5 10 -3 15 -9 12 -12z m-1593 -17 c-2 -14 -8 -22 -13 -19 -5 3 -5 14 1 25 14 26 18 24 12 -6z m1622 -31 c9 -24 2 -26 -12 -4 -7 11 -8 20 -3 20 5 0 12 -7 15 -16z m-1644 -28 c0 -2 -7 -7 -16 -10 -8 -3 -12 -2 -9 4 6 10 25 14 25 6z m1684 -71 c-4 -8 -1 -15 6 -15 6 0 8 -5 4 -11 -5 -8 -10 -6 -16 5 -5 9 -6 21 -3 26 9 15 15 12 9 -5z m-1723 -18 c-10 -9 -11 -8 -5 6 3 10 9 15 12 12 3 -3 0 -11 -7 -18z m-20 -58 c-5 -13 -10 -19 -10 -12 -1 15 10 45 15 40 3 -2 0 -15 -5 -28z m1788 -79 c0 -9 -4 -8 -9 5 -5 11 -9 27 -9 35 0 9 4 8 9 -5 5 -11 9 -27 9 -35z m5 -55 c5 -22 4 -26 -4 -15 -5 8 -10 24 -10 34 0 26 6 18 14 -19z m-244 -29 c0 -11 -19 -15 -25 -6 -3 5 1 10 9 10 9 0 16 -2 16 -4z m-1370 -22 c-8 -8 -23 -20 -34 -25 -13 -7 -9 -1 9 15 34 29 43 33 25 10z m1405 6 c3 -6 -1 -7 -9 -4 -18 7 -21 14 -7 14 6 0 13 -4 16 -10z m63 -46 c21 -20 22 -24 6 -16 -22 11 -51 42 -40 42 4 0 19 -12 34 -26z m-171 0 c-3 -3 -12 -4 -19 -1 -8 3 -5 6 6 6 11 1 17 -2 13 -5z m-1372 -27 c-7 -11 -11 -27 -8 -36 5 -13 3 -13 -7 -4 -8 7 -10 19 -5 30 5 10 8 21 7 24 0 3 5 6 13 6 12 0 12 -3 0 -20z m-128 -37 c1 -16 -1 -31 -5 -34 -6 -3 -8 40 -3 59 3 12 6 3 8 -25z m1703 19 c0 -5 5 -7 12 -3 7 4 8 3 4 -4 -4 -7 -14 -12 -22 -12 -8 0 -12 -4 -9 -10 4 -6 -1 -7 -11 -3 -11 4 -15 3 -10 -5 3 -6 2 -13 -3 -16 -5 -4 -8 1 -7 10 1 9 10 21 19 26 10 5 15 13 12 19 -4 5 -1 9 4 9 6 0 11 -5 11 -11z m-1204 -42 c2 -13 -5 -17 -24 -16 -15 1 -36 -2 -47 -6 l-20 -8 20 20 c14 15 25 18 37 12 11 -6 19 -5 24 3 4 6 3 8 -4 4 -6 -3 -13 -2 -16 3 -4 5 1 8 11 7 9 -2 17 -10 19 -19z m857 0 c-4 -7 0 -8 13 -3 14 5 16 4 8 -4 -13 -13 -46 -2 -37 13 3 6 1 7 -5 3 -30 -18 20 -54 117 -82 20 -6 -54 -62 -98 -74 -20 -5 -46 -10 -58 -10 -25 0 -39 -16 -21 -24 7 -3 1 -3 -14 0 -15 4 -41 1 -57 -4 -23 -8 -31 -7 -35 3 -3 9 0 12 10 8 9 -3 21 3 30 16 8 11 22 21 30 21 8 0 14 4 14 9 0 5 8 12 17 15 15 6 15 5 -1 -13 -11 -12 -14 -21 -7 -26 13 -7 71 81 71 108 0 11 -4 15 -12 11 -7 -4 -8 -3 -4 4 4 7 2 12 -3 12 -18 0 -12 28 7 32 24 6 43 -2 35 -15z m-1173 -18 c0 -14 -17 -10 -23 5 -4 10 -1 13 9 9 7 -3 14 -9 14 -14z m1457 7 c0 -8 -6 -12 -15 -8 -10 3 -13 1 -8 -6 5 -8 1 -10 -10 -5 -10 4 -15 2 -11 -3 3 -5 -6 -11 -20 -12 -14 -1 -31 -7 -38 -12 -9 -7 -16 -6 -25 5 -11 13 -7 15 24 15 19 0 50 9 68 20 18 11 33 20 34 20 0 0 1 -6 1 -14z m170 -18 c-3 -7 -5 -2 -5 12 0 14 2 19 5 13 2 -7 2 -19 0 -25z m-1519 -5 c54 -6 60 -11 40 -31 -8 -8 -8 -15 2 -27 7 -8 9 -15 5 -15 -4 0 -1 -8 6 -17 11 -16 11 -16 -1 -5 -8 7 -15 16 -15 20 0 4 -9 19 -18 34 -13 18 -25 25 -42 23 -14 -1 -22 2 -19 7 4 5 -2 9 -12 8 -33 -4 -45 0 -39 11 4 6 14 7 24 4 9 -4 40 -9 69 -12z m1137 8 c-3 -5 8 -9 25 -9 17 1 38 -6 47 -15 15 -15 15 -17 0 -23 -9 -3 -14 -11 -10 -17 3 -6 1 -7 -6 -3 -6 4 -9 11 -6 16 3 4 -2 13 -10 20 -8 7 -15 9 -15 6 0 -4 -9 -2 -20 4 -17 9 -20 30 -4 30 3 0 3 -4 -1 -9z m-1035 -11 c0 -5 -8 -10 -17 -10 -15 0 -16 2 -3 10 19 12 20 12 20 0z m120 -90 l21 -30 -23 0 c-41 0 -97 20 -128 46 -36 31 -38 44 -7 44 12 1 38 9 57 20 l35 18 12 -34 c7 -19 22 -48 33 -64z m1300 25 c0 -5 -5 -3 -10 5 -5 8 -10 20 -10 25 0 6 5 3 10 -5 5 -8 10 -19 10 -25z m-1806 -1 c3 -8 2 -12 -4 -9 -6 3 -10 10 -10 16 0 14 7 11 14 -7z m539 -12 c-2 -6 6 -14 17 -17 11 -4 20 -11 20 -16 0 -5 7 -9 15 -9 8 0 15 -5 15 -11 0 -6 7 -8 16 -5 10 4 14 2 11 -6 -2 -7 -11 -11 -18 -8 -8 2 -31 4 -51 3 -21 0 -38 3 -38 9 0 5 4 7 8 4 4 -2 14 -1 22 5 12 7 11 9 -5 10 -12 0 -15 3 -7 6 10 4 8 9 -7 20 -23 15 -29 38 -8 30 6 -2 11 -9 10 -15z m450 -32 c-8 -17 -16 -30 -18 -30 -6 0 6 32 16 46 5 6 5 15 1 19 -4 5 -2 5 5 2 8 -5 8 -15 -4 -37z m-972 -6 c5 -15 8 -29 5 -31 -2 -2 -8 10 -14 26 -13 38 -5 41 9 5z m1766 -6 c-3 -8 -6 -5 -6 6 -1 11 2 17 5 13 3 -3 4 -12 1 -19z m-998 -14 c12 -15 21 -33 21 -41 0 -8 4 -12 9 -9 5 4 7 -4 3 -16 -5 -20 -6 -19 -16 10 -7 18 -15 30 -20 25 -5 -4 -7 -1 -4 7 3 8 -4 23 -15 33 -11 9 -15 17 -9 17 6 0 20 -12 31 -26z m-114 -13 c3 -5 0 -13 -6 -17 -7 -4 -9 -3 -5 4 3 5 0 13 -6 15 -9 4 -10 6 -1 6 6 1 14 -3 18 -8z m479 1 c2 -4 -13 -18 -35 -30 -41 -24 -50 -20 -23 9 9 10 23 15 32 12 10 -4 13 -2 8 5 -4 7 -3 12 3 12 5 0 12 -3 15 -8z m-1117 -34 c2 -17 0 -19 -7 -8 -5 8 -6 18 -4 22 8 12 10 10 11 -14z m948 -10 c-3 -12 3 -30 11 -40 16 -17 18 -17 42 2 13 11 30 20 36 20 6 -1 1 -6 -10 -13 -12 -7 -20 -20 -19 -29 2 -10 -1 -18 -6 -18 -4 0 -6 -7 -3 -15 11 -29 -6 -15 -33 28 -25 38 -40 103 -22 91 4 -2 6 -14 4 -26z m788 7 c-6 -17 -23 -20 -23 -5 0 6 5 10 11 10 5 0 7 5 3 12 -4 7 -3 8 4 4 6 -4 9 -13 5 -21z m-903 -70 c0 -5 4 -4 9 3 7 11 9 11 14 -2 4 -10 1 -16 -9 -16 -8 0 -17 7 -20 15 -4 8 -11 12 -18 8 -6 -3 -8 -3 -4 2 4 4 3 17 -3 29 -8 17 -6 16 10 -4 11 -14 21 -29 21 -35z m-807 15 c3 -11 2 -18 -3 -15 -4 3 -10 14 -13 25 -3 11 -2 18 3 15 4 -3 10 -14 13 -25z m1682 -2 c-7 -37 -13 -48 -26 -48 -5 0 -3 10 5 23 15 21 16 26 16 47 0 6 2 10 5 10 3 0 3 -14 0 -32z m-1660 -38 c3 -5 1 -10 -4 -10 -6 0 -11 5 -11 10 0 6 2 10 4 10 3 0 8 -4 11 -10z m847 -54 c-7 -13 -21 16 -14 32 4 13 7 12 12 -4 4 -10 5 -23 2 -28z m-125 7 c10 -16 20 -30 23 -33 24 -23 28 -39 4 -18 l-30 27 -14 -22 c-8 -12 -15 -26 -15 -32 -1 -14 -24 -65 -28 -65 -2 0 -2 11 1 25 2 14 7 25 11 25 4 0 7 8 8 18 2 65 8 102 15 102 4 0 15 -12 25 -27z m-693 -2 c10 -11 13 -22 8 -25 -5 -3 -15 1 -22 9 -7 8 -9 15 -4 15 5 0 2 5 -6 10 -8 5 -10 10 -4 10 6 0 19 -9 28 -19z m1599 12 c-7 -2 -13 -11 -13 -19 0 -8 -4 -14 -9 -14 -5 0 -16 -15 -25 -32 -8 -18 -16 -27 -16 -20 0 19 51 92 64 91 7 0 6 -3 -1 -6z m-1563 -75 c0 -6 -6 -5 -15 2 -8 7 -15 14 -15 16 0 2 7 1 15 -2 8 -4 15 -11 15 -16z m817 -44 c2 -30 -1 -63 -7 -72 -7 -13 -8 -9 -4 15 4 18 1 46 -4 63 -8 22 -8 29 -1 24 8 -4 9 1 4 17 -4 13 -4 21 1 16 4 -4 9 -32 11 -63z m-137 -2 c0 -44 -29 -99 -81 -151 -48 -48 -95 -75 -160 -91 -38 -10 -51 -8 -87 8 l-43 19 63 5 c132 11 246 104 278 227 13 50 30 41 30 -17z m-660 13 c0 -3 9 -14 21 -24 18 -14 19 -18 6 -18 -10 0 -15 3 -12 5 3 3 -4 11 -15 19 -12 9 -17 20 -13 30 6 15 17 5 13 -12z m1474 -3 c2 -4 -5 -9 -17 -9 -17 -2 -19 0 -7 7 18 12 18 12 24 2z m-30 -43 c-3 -5 -10 -7 -15 -3 -5 3 -7 10 -3 15 3 5 10 7 15 3 5 -3 7 -10 3 -15z m-1268 -105 c38 -19 86 -37 107 -41 36 -5 37 -6 16 -17 -32 -16 -33 -45 -3 -52 14 -4 23 -9 20 -12 -3 -2 -19 1 -36 8 -23 9 -28 15 -18 21 10 7 9 9 -5 9 -23 0 -98 50 -91 61 3 5 -3 6 -13 2 -15 -6 -16 -5 -5 9 11 14 10 16 -7 11 -13 -3 -23 0 -27 11 -3 9 -11 13 -18 9 -6 -3 -8 -3 -4 1 3 4 -7 21 -23 37 -40 41 -36 50 5 10 18 -18 64 -48 102 -67z m399 86 c-3 -5 -16 -15 -28 -21 l-22 -12 20 21 c21 22 41 30 30 12z m90 -61 c-14 -22 -42 -58 -61 -79 -20 -22 -33 -43 -30 -48 3 -6 -1 -15 -9 -22 -8 -7 -12 -17 -8 -23 3 -6 1 -7 -6 -3 -6 4 -14 0 -18 -9 -3 -10 0 -21 8 -26 8 -5 10 -9 4 -10 -5 -1 8 -5 30 -9 l40 -7 -35 -2 c-19 0 -47 5 -62 13 -15 8 -28 10 -30 5 -2 -5 -21 0 -42 11 -21 10 -43 17 -49 13 -6 -4 -7 -1 -2 7 6 10 4 12 -8 7 -10 -3 -17 -2 -17 3 0 6 -3 9 -7 9 -20 -3 -33 2 -33 12 0 8 4 8 13 2 10 -8 48 -9 104 -1 7 1 10 5 7 9 -2 4 9 10 26 14 16 4 30 11 30 16 0 6 4 8 8 5 5 -3 25 10 45 28 21 19 37 29 37 23 0 -6 3 -8 6 -4 3 3 4 7 2 9 -1 3 5 12 15 22 9 10 15 22 11 27 -3 5 0 8 8 7 7 -2 12 3 10 10 -1 8 2 11 9 6 9 -5 10 -2 6 10 -4 10 -3 15 3 11 6 -3 11 4 11 17 1 18 2 19 6 5 3 -10 -7 -36 -22 -58z m733 36 c-15 -13 -24 -26 -20 -31 4 -4 1 -4 -6 0 -9 6 -5 15 15 35 15 14 30 25 33 23 3 -2 -7 -14 -22 -27z m-460 -9 c17 -19 33 -32 37 -28 3 3 3 -1 0 -11 -6 -14 -9 -14 -21 -2 -8 7 -14 20 -14 27 0 10 -3 9 -10 -2 -9 -13 -10 -13 -10 0 0 11 -4 9 -12 -5 -6 -11 -19 -26 -27 -33 -15 -12 -14 -13 0 -9 11 4 16 -1 16 -11 0 -34 3 -43 12 -38 5 3 11 -3 14 -14 3 -11 11 -19 17 -18 7 2 14 -3 16 -10 1 -7 0 -8 -3 -2 -2 5 -9 8 -13 5 -5 -3 -17 3 -27 13 -10 11 -31 22 -48 25 -16 4 -24 4 -17 1 18 -8 15 -22 -8 -29 -11 -4 -18 -10 -15 -15 3 -5 -4 -11 -15 -15 -11 -4 -18 -10 -16 -14 3 -4 -8 -22 -24 -39 -47 -52 -7 -37 49 19 28 27 51 54 51 59 0 4 25 -8 55 -28 l55 -36 -52 -12 c-29 -6 -75 -15 -101 -19 -36 -5 -47 -10 -43 -21 6 -16 9 -15 -61 -18 -39 -2 -53 1 -53 11 0 8 5 11 10 8 6 -3 10 -1 10 4 0 6 9 11 20 11 11 0 19 6 18 13 -2 6 5 11 15 11 9 -1 17 4 17 10 0 7 18 29 40 51 21 21 37 41 35 45 -7 11 31 41 40 33 5 -5 4 -1 -3 9 -7 9 -9 19 -4 22 5 3 12 24 16 46 3 22 10 40 15 40 5 0 22 -15 39 -34z m-419 -32 c-12 -13 -25 -21 -30 -18 -4 2 -12 -4 -18 -13 -6 -10 -11 -14 -11 -8 0 14 52 62 68 62 7 0 4 -9 -9 -23z m257 -3 c-9 -10 -16 -22 -16 -27 0 -6 -13 -23 -30 -39 -16 -16 -30 -25 -30 -21 0 5 11 17 25 28 25 19 36 46 14 32 -7 -4 -1 7 11 24 13 17 27 29 32 26 5 -3 2 -14 -6 -23z m553 -21 c-32 -32 -49 -38 -50 -17 0 9 -2 9 -6 -1 -2 -6 -10 -9 -16 -5 -8 5 -8 2 0 -9 11 -12 9 -18 -6 -32 -11 -10 -25 -15 -32 -10 -8 4 -10 3 -5 -4 5 -8 -1 -12 -14 -12 -12 0 -19 -4 -16 -8 3 -5 -2 -9 -10 -9 -13 0 -13 2 0 16 14 13 14 17 0 32 -15 17 -14 18 12 24 38 8 125 46 143 61 29 26 30 2 0 -26z m-308 -10 c10 0 19 -4 19 -10 0 -5 -8 -7 -17 -3 -29 10 -43 25 -36 37 5 7 9 5 11 -6 2 -10 12 -18 23 -18z m-86 10 c16 -25 113 -63 175 -68 l65 -5 -44 -19 c-48 -20 -82 -18 -136 9 -39 20 -85 63 -85 80 0 15 16 17 25 3z m-511 -18 c2 -4 -5 -9 -17 -9 -17 -2 -19 0 -7 7 18 12 18 12 24 2z m-67 -18 c-3 -3 -12 -4 -19 -1 -8 3 -5 6 6 6 11 1 17 -2 13 -5z m780 0 c-3 -3 -12 -4 -19 -1 -8 3 -5 6 6 6 11 1 17 -2 13 -5z m-455 -46 c-7 -7 -12 -8 -12 -2 0 14 12 26 19 19 2 -3 -1 -11 -7 -17z m-23 -11 c-2 -1 -15 -11 -28 -22 -14 -11 -21 -14 -17 -7 4 6 2 12 -3 12 -6 0 -11 -4 -11 -9 0 -5 -7 -11 -15 -15 -25 -9 -17 12 10 27 20 10 80 23 64 14z m375 -32 c36 -11 53 -12 62 -4 7 6 19 9 26 6 7 -3 4 -6 -7 -6 -17 -1 -18 -3 -5 -12 13 -9 13 -10 0 -7 -8 1 -25 -3 -37 -10 -13 -7 -23 -9 -23 -5 0 4 -5 1 -11 -7 -8 -11 -12 -12 -16 -2 -2 6 -9 12 -14 12 -6 0 -8 -4 -4 -9 6 -11 -33 -36 -43 -27 -3 3 0 6 6 6 6 0 16 10 23 21 9 18 8 24 -5 31 -16 9 -22 28 -8 28 4 0 29 -7 56 -15z m-134 -75 c-8 -5 -22 -9 -30 -9 -10 0 -8 3 5 9 27 12 43 12 25 0z m-70 -4 c0 -2 -8 -10 -17 -17 -16 -13 -17 -12 -4 4 13 16 21 21 21 13z"/> <path d="M2806 823 c-6 -14 -5 -15 5 -6 7 7 10 15 7 18 -3 3 -9 -2 -12 -12z"/> <path d="M2950 2525 c-81 -110 -142 -283 -128 -360 5 -23 3 -22 -37 10 -52 43 -137 82 -229 106 -108 28 -103 31 -95 -58 12 -141 48 -230 124 -310 25 -26 45 -48 45 -50 0 -2 -10 -3 -23 -3 -21 0 -171 -71 -192 -91 -27 -27 168 -137 260 -146 30 -3 53 -9 51 -12 -2 -3 -11 -30 -20 -60 l-16 -54 58 7 c66 8 155 46 196 84 l29 27 -6 -54 c-4 -29 -15 -69 -27 -88 -19 -32 -19 -36 -4 -59 14 -20 19 -22 32 -12 23 20 51 94 58 154 l7 55 26 -25 c38 -36 128 -74 193 -82 l56 -7 -9 43 c-5 23 -14 50 -19 60 -8 15 -3 18 43 22 63 5 153 45 225 100 l54 40 -68 39 c-38 21 -85 44 -104 50 -19 6 -41 12 -48 15 -8 2 2 17 26 39 73 65 123 188 136 334 l6 64 -40 -7 c-85 -13 -202 -58 -265 -101 l-65 -45 0 38 c0 52 -25 149 -53 213 -27 59 -111 179 -127 179 -5 0 -28 -25 -50 -55z m77 -12 c4 -10 14 -23 22 -30 9 -6 16 -15 16 -20 0 -4 8 -17 18 -28 9 -11 18 -24 18 -30 1 -5 6 -19 12 -30 15 -25 17 -55 5 -55 -5 0 -6 9 -3 20 4 13 1 22 -9 26 -9 3 -16 12 -16 20 0 8 -6 14 -12 15 -10 0 -10 2 -1 5 8 4 5 13 -10 30 -12 14 -21 28 -19 31 2 3 -9 14 -25 24 -15 10 -23 19 -18 19 6 0 3 5 -5 10 -13 8 -12 10 3 10 10 0 21 -8 24 -17z m-55 -23 c-9 -11 -21 -20 -27 -20 -5 0 -3 5 5 10 8 5 11 10 6 10 -5 0 -3 7 4 15 7 8 16 12 21 10 4 -3 1 -15 -9 -25z m74 -66 c71 -126 89 -235 62 -368 -10 -45 -10 -60 -1 -63 8 -3 4 -19 -13 -49 -14 -25 -24 -50 -21 -57 2 -6 14 11 27 39 43 89 124 186 194 231 33 22 165 73 186 73 11 0 -9 -96 -31 -156 -29 -78 -77 -134 -153 -178 -36 -21 -66 -45 -66 -52 0 -8 -7 -14 -15 -14 -28 0 -15 33 30 77 25 24 43 43 40 43 -3 0 3 8 13 19 9 10 20 18 23 17 4 -1 7 2 8 7 0 4 12 18 26 31 14 13 25 31 25 40 0 9 5 16 11 16 5 0 7 -5 3 -12 -4 -6 -3 -8 4 -5 5 4 8 17 4 30 -5 20 -4 21 14 7 15 -11 16 -11 7 0 -10 11 -9 18 9 37 12 13 18 23 14 23 -5 0 -3 7 4 15 7 8 9 15 5 15 -9 0 -22 -16 -77 -95 -23 -32 -76 -95 -118 -140 -87 -91 -130 -143 -130 -155 0 -4 19 -1 43 7 79 27 206 11 297 -37 13 -7 26 -8 33 -3 17 13 42 10 41 -4 -2 -29 -5 -32 -19 -27 -8 4 -17 -1 -21 -9 -3 -9 -16 -23 -29 -31 -21 -14 -23 -14 -20 2 1 10 9 16 20 14 9 -2 14 1 11 6 -3 6 1 12 9 16 8 3 15 9 15 15 0 5 -35 -9 -77 -31 -76 -38 -80 -39 -170 -36 -82 3 -115 10 -102 22 9 9 199 22 199 13 0 -4 10 -1 22 7 12 9 33 16 47 16 13 0 22 2 20 5 -8 7 -260 -13 -301 -25 -20 -6 -46 -19 -59 -29 l-22 -18 21 -5 c12 -4 20 -2 16 3 -3 5 2 9 10 9 9 0 16 -6 16 -14 0 -8 4 -18 10 -21 11 -7 2 23 -12 42 -14 18 28 4 45 -15 8 -10 26 -38 40 -65 15 -30 27 -42 30 -34 3 8 -3 28 -13 45 -11 17 -15 34 -11 36 12 8 90 0 99 -9 4 -4 -4 -4 -17 0 -15 5 -21 4 -17 -3 4 -7 -1 -9 -13 -7 -11 2 -22 -3 -25 -11 -3 -8 -2 -13 3 -10 4 3 8 -8 9 -24 0 -17 4 -40 7 -53 7 -22 7 -22 -10 -2 -9 11 -14 14 -10 8 3 -7 1 -13 -4 -13 -6 0 -11 6 -11 13 0 9 -2 9 -8 0 -5 -8 -14 -6 -32 8 -24 20 -24 20 -2 9 13 -6 26 -9 30 -6 7 7 9 6 -53 36 -27 13 -56 24 -63 23 -7 0 -11 1 -8 4 3 3 -6 20 -20 39 -14 18 -23 38 -19 44 3 6 25 20 48 32 33 17 67 23 162 28 114 6 122 9 48 15 -18 1 -56 6 -85 9 -33 4 -72 1 -105 -7 l-53 -14 23 41 c12 22 84 104 160 182 79 82 137 150 136 161 0 14 -3 12 -10 -7 -8 -20 -12 -22 -19 -10 -8 12 -10 12 -10 1 0 -11 -3 -11 -17 0 -15 11 -14 9 1 -9 11 -12 17 -24 15 -25 -206 -165 -273 -227 -300 -280 -12 -22 -24 -35 -31 -31 -6 4 -8 3 -5 -4 4 -5 17 -8 30 -4 20 5 21 4 7 -13 -8 -10 -10 -16 -4 -12 7 4 15 0 18 -9 3 -8 2 -12 -4 -9 -5 3 -15 -7 -23 -22 -15 -32 -12 -67 6 -56 7 4 6 -1 -2 -10 -7 -9 -10 -17 -5 -17 5 0 -2 -7 -15 -16 -17 -13 -25 -14 -34 -5 -9 9 -7 11 8 6 14 -5 13 -2 -5 9 -29 18 -44 20 -35 6 3 -5 2 -10 -3 -10 -6 0 -13 7 -16 16 -5 13 -10 12 -35 -9 -16 -13 -50 -33 -75 -43 -25 -11 -48 -25 -51 -32 -3 -9 0 -10 15 -2 28 15 37 12 14 -5 -24 -18 -58 -20 -48 -2 6 8 3 8 -9 -2 -15 -12 -16 -10 -11 30 3 24 13 50 22 58 15 12 15 12 -5 7 -12 -4 -24 -2 -28 4 -4 6 -13 9 -21 6 -7 -3 -16 -1 -19 4 -3 5 14 9 39 8 24 0 48 2 54 6 6 4 8 -2 5 -15 -3 -11 -11 -23 -18 -25 -11 -4 -12 -17 -6 -59 1 -5 16 17 34 49 32 58 90 115 74 73 -9 -25 1 -41 18 -27 7 6 17 9 21 8 5 -2 11 1 14 6 9 17 -54 45 -125 55 -71 10 -258 23 -240 16 6 -2 27 -6 48 -10 21 -3 36 -9 33 -13 -5 -8 26 -11 127 -11 59 0 77 -3 77 -11 0 -14 -64 -23 -139 -18 -51 3 -83 11 -126 33 -32 17 -58 34 -59 39 -2 18 118 58 187 64 86 6 91 27 15 70 -98 55 -154 129 -182 239 -24 91 -22 105 12 97 115 -28 222 -98 286 -188 32 -44 43 -53 57 -46 15 9 15 14 2 72 -19 79 -12 195 16 268 22 58 81 160 93 160 4 0 24 -30 44 -66z m-108 16 c-7 -10 -14 -18 -15 -16 -6 6 9 36 18 36 5 0 4 -9 -3 -20z m-36 -69 c-9 -22 -20 -37 -24 -35 -4 3 1 19 12 36 10 17 16 36 13 41 -3 6 -1 7 5 3 7 -4 5 -18 -6 -45z m-35 -113 c-3 -7 -5 -2 -5 12 0 14 2 19 5 13 2 -7 2 -19 0 -25z m270 0 c-3 -8 -6 -5 -6 6 -1 11 2 17 5 13 3 -3 4 -12 1 -19z m379 -14 c1 -18 -2 -19 -22 -10 -19 9 -20 12 -7 15 13 2 14 5 2 13 -11 7 -9 8 6 6 12 -2 20 -11 21 -24z m-986 7 c-14 -4 -27 -17 -31 -31 -4 -14 -8 -18 -9 -10 -1 8 -3 23 -5 33 -3 14 4 17 33 16 32 -1 33 -2 12 -8z m929 5 c-14 -12 -69 -35 -69 -28 0 4 12 13 28 19 28 11 48 16 41 9z m-859 -16 c13 -9 13 -10 0 -10 -8 0 -22 5 -30 10 -13 9 -13 10 0 10 8 0 22 -5 30 -10z m78 -19 c7 -1 11 -5 8 -10 -6 -8 30 -25 47 -22 5 1 6 -2 3 -7 -2 -4 9 -14 25 -21 16 -7 29 -17 29 -23 0 -6 -7 -5 -16 3 -19 15 -50 34 -81 48 -11 5 -24 15 -28 21 -3 5 -10 8 -14 6 -4 -3 -13 0 -21 5 -11 7 -8 8 10 5 14 -3 31 -5 38 -5z m692 3 c0 -8 -19 -13 -24 -6 -3 5 1 9 9 9 8 0 15 -2 15 -3z m-214 -48 c0 -20 5 -41 10 -46 11 -11 56 -2 49 10 -3 4 2 10 10 14 24 9 18 -1 -30 -50 -24 -25 -43 -51 -42 -58 1 -6 -4 -10 -10 -8 -7 1 -13 -3 -13 -10 0 -6 -2 -9 -5 -6 -3 2 1 26 9 51 10 34 11 47 3 47 -8 0 -8 3 -2 8 14 9 14 75 1 85 -7 5 -5 7 4 4 10 -2 15 -17 16 -41z m153 21 c-2 -2 -17 -11 -34 -21 l-30 -17 24 20 c13 12 28 21 34 21 6 0 8 -1 6 -3z m191 -67 c-6 -11 -8 -25 -5 -30 3 -6 1 -10 -6 -10 -7 0 -9 8 -5 23 10 31 14 49 17 67 1 8 4 5 6 -7 2 -12 -1 -31 -7 -43z m-992 9 c1 -37 -5 -35 -12 4 -2 15 -1 27 3 27 4 0 8 -14 9 -31z m348 15 c-3 -9 -3 -21 1 -27 4 -6 8 -28 9 -49 1 -20 5 -43 10 -50 4 -7 -14 9 -39 37 -46 51 -50 65 -17 65 10 0 22 9 25 20 3 11 9 20 12 20 3 0 2 -7 -1 -16z m-339 -76 c-3 -8 -6 -5 -6 6 -1 11 2 17 5 13 3 -3 4 -12 1 -19z m19 -13 c-3 -8 -1 -15 5 -15 6 0 7 -5 4 -11 -4 -5 1 -19 11 -30 9 -10 12 -19 7 -19 -14 0 -42 60 -36 77 3 7 7 13 10 13 3 0 3 -7 -1 -15z m937 0 c-3 -9 -8 -14 -10 -11 -3 3 -2 9 2 15 9 16 15 13 8 -4z m-13 -45 c-6 -11 -15 -20 -20 -20 -6 0 -5 9 2 20 7 11 16 20 21 20 4 0 3 -9 -3 -20z m-25 -51 c-4 -5 -12 -9 -18 -8 -9 0 -8 2 1 6 6 2 9 10 6 15 -4 7 -2 8 5 4 6 -4 9 -12 6 -17z m-829 -26 l28 -37 -26 19 c-14 11 -24 22 -22 24 2 2 -4 10 -14 17 -9 7 -12 14 -6 14 7 0 24 -17 40 -37z m804 -8 c0 -2 -10 -9 -22 -15 -22 -11 -22 -10 -4 4 21 17 26 19 26 11z m-754 -41 c-3 -9 0 -11 11 -7 11 4 14 2 9 -5 -4 -7 -2 -10 7 -6 7 2 23 -3 33 -13 11 -10 15 -14 8 -10 -7 4 -14 4 -16 -1 -5 -14 -87 -21 -95 -9 -3 5 -2 8 3 4 5 -3 17 1 27 8 12 8 14 15 8 20 -6 3 -11 15 -11 26 0 12 4 17 11 14 6 -4 8 -13 5 -21z m702 -11 c-10 -12 -9 -17 5 -28 27 -20 9 -25 -35 -9 -49 17 -51 17 -42 2 4 -7 3 -8 -5 -4 -13 8 -6 26 11 26 5 0 21 9 35 20 28 22 51 17 31 -7z m-753 -63 c-3 -5 -14 -10 -23 -9 -14 0 -13 2 3 9 27 11 27 11 20 0z m840 -11 c5 -5 -5 -4 -23 2 -17 6 -32 13 -32 16 0 7 43 -8 55 -18z m-891 -4 c-4 -8 -11 -15 -16 -15 -6 0 -5 6 2 15 7 8 14 15 16 15 2 0 1 -7 -2 -15z m926 -5 c0 -5 -2 -10 -4 -10 -3 0 -8 5 -11 10 -3 6 -1 10 4 10 6 0 11 -4 11 -10z m-979 -39 c-10 -18 -5 -24 56 -58 38 -21 76 -38 85 -38 9 0 20 -4 24 -8 15 -15 -40 -1 -81 20 -22 11 -42 20 -45 19 -3 0 -16 9 -30 22 -13 12 -30 22 -37 22 -12 0 -14 4 -13 28 0 4 9 6 20 6 11 -1 20 3 20 9 0 6 3 8 6 5 3 -4 1 -15 -5 -27z m389 -85 c0 -3 -4 -8 -10 -11 -5 -3 -10 -1 -10 4 0 6 5 11 10 11 6 0 10 -2 10 -4z m513 -3 c-13 -2 -23 -7 -23 -11 0 -4 -12 -8 -28 -8 l-27 -1 30 13 c17 7 39 13 50 12 17 -1 17 -1 -2 -5z m-335 -44 c-4 -8 23 -40 31 -35 3 2 20 -7 36 -21 29 -25 29 -25 3 -9 -16 9 -28 13 -28 10 0 -11 -41 28 -52 50 -7 13 -7 17 2 14 6 -2 10 -6 8 -9z m-138 -13 c0 -2 -8 -10 -17 -17 -16 -13 -17 -12 -4 4 13 16 21 21 21 13z m-45 -35 c-6 -5 -21 -11 -35 -15 -21 -5 -20 -3 5 9 35 17 42 18 30 6z m85 -131 c0 -5 -5 -10 -11 -10 -5 0 -7 5 -4 10 3 6 8 10 11 10 2 0 4 -4 4 -10z"/> <path d="M2997 2313 c-4 -82 -11 -228 -17 -326 -6 -98 -8 -182 -5 -187 3 -4 -2 -11 -11 -14 -9 -4 -14 -9 -10 -13 3 -3 22 2 42 13 l36 19 -7 95 c-4 52 -9 197 -10 322 -1 125 -4 230 -7 233 -3 3 -8 -61 -11 -142z"/> <path d="M2969 2343 c-5 -26 -9 -63 -11 -95 -1 -20 -5 -35 -9 -32 -4 2 -6 -12 -5 -31 3 -32 -6 -46 -17 -27 -2 4 -2 0 1 -8 3 -8 5 -22 4 -30 -1 -27 -4 -225 -3 -239 1 -8 4 -11 8 -8 3 4 8 46 10 94 4 86 26 287 39 351 4 21 3 32 -5 32 -6 0 -12 -3 -12 -7z"/> <path d="M2562 2168 c2 -7 13 -28 26 -45 23 -33 18 -44 -8 -20 -12 10 -12 9 -1 -5 7 -10 19 -18 27 -18 18 0 27 -17 13 -26 -8 -4 -9 -3 -5 4 5 8 2 10 -8 6 -12 -5 -13 -9 -3 -19 7 -7 15 -9 18 -4 3 5 13 1 23 -10 10 -11 15 -25 11 -31 -3 -6 -3 -10 2 -9 19 3 33 -2 33 -12 0 -5 -5 -7 -12 -3 -7 4 -8 3 -4 -5 4 -6 12 -9 17 -6 5 4 9 1 9 -5 0 -6 5 -8 12 -4 7 4 8 3 4 -4 -7 -11 27 -36 37 -26 3 3 4 -3 4 -13 -1 -10 4 -17 12 -15 9 2 11 -3 7 -13 -3 -9 -2 -13 4 -10 6 3 13 -1 16 -9 3 -9 11 -13 17 -9 6 4 8 0 5 -8 -3 -8 7 -24 23 -37 16 -13 29 -19 29 -14 0 13 -69 99 -110 137 -39 36 -197 229 -183 224 19 -8 289 -295 321 -341 18 -26 32 -49 32 -51 0 -3 -21 2 -47 10 -30 9 -67 12 -98 8 -127 -14 -146 -15 -139 -3 4 7 3 8 -4 4 -30 -18 -5 -26 81 -26 100 0 149 -10 203 -42 33 -20 34 -21 18 -39 -13 -15 -15 -22 -6 -31 8 -8 13 -7 18 5 3 9 10 15 14 12 12 -8 -7 66 -21 79 -9 8 -10 8 -4 -3 6 -10 4 -12 -4 -7 -9 6 -9 11 0 22 6 8 8 14 4 14 -4 0 -2 6 4 14 10 11 9 21 -3 43 -18 34 -108 121 -196 190 -76 60 -134 119 -107 110 11 -4 16 -3 12 4 -4 6 -13 8 -21 5 -8 -3 -14 -1 -14 4 0 5 -14 16 -30 25 -23 12 -30 12 -28 3z"/> <path d="M2710 2105 c-7 -8 -11 -15 -9 -16 31 -6 37 -5 35 7 -3 22 -12 25 -26 9z"/> <path d="M2776 2032 c-3 -5 1 -9 9 -9 8 0 12 4 9 9 -3 4 -7 8 -9 8 -2 0 -6 -4 -9 -8z"/> <path d="M3309 1953 c-13 -16 -12 -17 4 -4 16 13 21 21 13 21 -2 0 -10 -8 -17 -17z"/> <path d="M2667 2387 c-27 -84 -25 -88 53 -128 l70 -36 0 27 c0 15 7 47 15 70 8 23 15 46 15 50 0 8 -84 54 -116 64 -18 5 -23 -1 -37 -47z m64 6 c10 -11 10 -14 2 -9 -27 16 -11 -11 24 -40 31 -26 35 -34 25 -47 -7 -8 -10 -23 -7 -33 3 -11 -3 -2 -13 18 -24 49 -30 54 -27 23 2 -15 -2 -25 -9 -25 -21 0 -24 10 -14 47 11 41 2 56 -18 29 -8 -11 -14 -16 -14 -12 0 7 32 66 36 66 1 0 8 -8 15 -17z m53 -29 c7 -19 2 -18 -19 6 -16 17 -16 20 -3 15 9 -4 19 -13 22 -21z"/> <path d="M3244 2409 c-32 -17 -60 -32 -62 -34 -2 -1 4 -20 13 -40 8 -21 16 -54 17 -74 l1 -36 72 35 71 35 -12 50 c-19 76 -26 95 -34 95 -4 0 -34 -14 -66 -31z m86 -88 c-1 -3 -8 6 -16 22 -17 31 -38 37 -30 7 3 -11 9 -29 12 -40 3 -13 0 -22 -11 -26 -23 -9 -28 1 -14 28 16 32 1 16 -28 -29 -14 -21 -22 -30 -19 -20 3 10 1 27 -4 37 -8 16 -4 24 25 46 24 18 32 30 24 34 -7 5 -8 10 -1 14 6 3 13 0 15 -6 3 -7 6 -4 6 7 1 13 8 5 21 -24 11 -24 20 -46 20 -50z"/> <path d="M2359 2193 c-13 -16 -12 -17 4 -4 9 7 17 15 17 17 0 8 -8 3 -21 -13z"/> <path d="M3622 2206 c4 -5 3 -15 -3 -22 -7 -9 -6 -12 5 -10 25 3 28 12 9 27 -10 7 -15 9 -11 5z"/> <path d="M2277 2094 c-7 -7 28 -110 48 -140 13 -21 12 -22 -13 -28 -36 -9 -132 -57 -132 -67 0 -11 63 -91 81 -102 18 -11 150 50 157 74 4 11 2 12 -10 2 -8 -7 -18 -10 -21 -6 -4 3 -7 1 -7 -6 0 -7 -5 -9 -11 -5 -6 3 -15 0 -20 -7 -7 -12 -9 -11 -10 1 0 8 -4 4 -8 -9 l-6 -24 -33 28 c-38 32 -40 40 -9 50 72 22 101 23 125 4 14 -10 29 -19 33 -19 7 0 94 37 107 45 1 1 -18 33 -43 70 -25 38 -45 65 -45 59 0 -5 7 -20 16 -32 18 -26 8 -29 -23 -7 -14 10 -24 12 -28 5 -6 -10 1 -14 19 -11 5 1 6 -5 3 -12 -3 -8 0 -14 6 -13 7 0 12 -3 12 -9 0 -5 -4 -9 -8 -7 -5 1 -6 -2 -2 -8 4 -7 13 -6 28 1 12 7 19 8 15 4 -4 -5 -3 -14 4 -22 6 -7 8 -16 5 -19 -11 -11 -49 8 -87 43 -37 33 -39 33 -49 14 -15 -27 -14 -38 2 -19 11 15 16 12 52 -23 34 -33 36 -37 13 -27 -14 7 -24 16 -22 19 2 4 -3 10 -12 13 -8 3 -12 2 -9 -4 8 -13 -38 -8 -47 5 -5 6 -8 5 -8 -2 0 -7 -5 -13 -10 -13 -6 0 3 17 20 38 30 38 30 39 15 76 -9 21 -14 40 -11 43 2 3 26 0 53 -5 26 -6 49 -9 50 -8 2 2 -2 17 -8 34 l-11 32 -77 0 c-43 0 -80 -3 -84 -6z m64 -35 c-2 -8 -3 -22 -3 -31 0 -10 -2 -18 -6 -18 -4 0 -8 16 -9 36 -1 24 2 34 10 31 7 -3 10 -11 8 -18z m6 -66 c-4 -3 -1 -13 6 -22 11 -14 10 -14 -5 -2 -21 15 -23 31 -6 31 6 0 8 -3 5 -7z m-94 -130 c-12 -32 -43 -39 -43 -10 0 7 4 6 10 -3 8 -13 10 -13 10 2 0 14 6 19 27 27 1 1 -1 -7 -4 -16z m11 -59 c9 -8 16 -18 16 -20 0 -7 -38 15 -45 26 -10 16 12 12 29 -6z"/> <path d="M3541 2040 c-12 -33 -38 -81 -57 -106 -20 -25 -34 -47 -32 -48 2 -1 26 -12 55 -25 51 -24 53 -24 80 -6 15 11 42 18 58 17 38 -3 95 -21 95 -31 0 -18 -58 -61 -74 -55 -13 5 -14 9 -5 20 9 12 9 13 -4 9 -8 -4 -18 -1 -23 6 -4 7 -3 10 2 6 6 -3 16 -2 24 3 27 17 -15 22 -51 7 l-34 -14 35 -19 c19 -10 55 -26 80 -36 l44 -18 29 28 c16 15 35 40 44 55 13 26 13 30 -4 43 -19 14 -117 54 -134 54 -5 0 -3 10 6 23 20 31 55 134 48 141 -4 3 -41 6 -83 6 l-77 0 -22 -60z m146 32 c10 -7 10 -12 -1 -27 -13 -18 -14 -18 -20 3 -4 13 -12 19 -18 16 -7 -4 -8 -2 -4 4 8 14 26 15 43 4z m-37 -32 c0 -24 -41 -89 -74 -118 -41 -36 -74 -48 -89 -33 -8 8 -8 11 1 11 7 0 12 7 12 16 0 8 5 12 10 9 6 -3 10 -2 10 3 0 6 8 9 18 8 11 -1 16 5 14 18 -2 11 1 15 8 11 6 -4 22 3 36 16 51 48 16 38 -63 -18 -28 -19 -29 -13 -3 17 11 13 20 31 20 41 0 12 9 19 28 22 52 8 72 7 72 -3z m-4 -84 c-9 -14 -13 -33 -9 -42 5 -13 3 -16 -10 -11 -8 3 -21 -1 -28 -9 -6 -8 -14 -12 -17 -9 -3 3 -12 -1 -21 -7 -9 -7 -3 2 13 20 16 17 33 29 38 26 5 -3 7 -2 6 3 -3 8 32 53 40 53 3 0 -3 -11 -12 -24z m14 -46 c6 -11 7 -20 2 -20 -6 0 -12 9 -15 20 -3 11 -3 20 -1 20 2 0 8 -9 14 -20z m90 -36 c0 -2 -7 -4 -15 -4 -8 0 -15 4 -15 10 0 5 7 7 15 4 8 -4 15 -8 15 -10z m34 -23 c3 -5 -1 -11 -9 -15 -15 -6 -29 7 -18 18 9 9 21 8 27 -3z m-19 -41 c-3 -5 -16 -15 -28 -21 l-22 -12 20 21 c21 22 41 30 30 12z"/> <path d="M2380 2014 c0 -3 7 -12 15 -20 13 -13 15 -13 15 -1 0 8 -7 17 -15 21 -8 3 -15 3 -15 0z"/> <path d="M3971 1845 c0 -5 3 -16 8 -23 7 -11 9 -10 14 3 4 9 3 14 -2 10 -5 -3 -12 1 -14 7 -3 7 -6 9 -6 3z"/> <path d="M3705 1450 c-3 -6 1 -7 9 -4 18 7 21 14 7 14 -6 0 -13 -4 -16 -10z"/> <path d="M3623 1095 c0 -8 4 -12 9 -9 5 3 6 10 3 15 -9 13 -12 11 -12 -6z"/> <path d="M3809 1083 c-13 -16 -12 -17 4 -4 16 13 21 21 13 21 -2 0 -10 -8 -17 -17z"/> <path d="M2645 1021 c-3 -5 -2 -12 3 -15 5 -3 9 1 9 9 0 17 -3 19 -12 6z"/> <path d="M3746 967 c3 -10 9 -15 12 -12 3 3 0 11 -7 18 -10 9 -11 8 -5 -6z"/> <path d="M2340 901 c0 -7 -5 -9 -12 -5 -7 5 -8 3 -3 -5 5 -9 10 -10 18 -2 6 6 8 14 4 18 -4 3 -7 1 -7 -6z"/> <path d="M2420 820 c-9 -6 -10 -10 -3 -10 6 0 15 5 18 10 8 12 4 12 -15 0z"/> <path d="M3550 826 c0 -2 7 -7 16 -10 8 -3 12 -2 9 4 -6 10 -25 14 -25 6z"/> </g> </svg>